<?xml version="1.0" encoding="UTF-8" standalone="no"?>
<!-- Created with Inkscape (http://www.inkscape.org/) -->

<svg
   version="1.1"
   id="svg2"
   width="4000"
   height="2666.6667"
   viewBox="0 0 4000 2666.6667"
   sodipodi:docname="landing-page-image.svg"
   inkscape:version="1.2.2 (b0a8486541, 2022-12-01)"
   xmlns:inkscape="http://www.inkscape.org/namespaces/inkscape"
   xmlns:sodipodi="http://sodipodi.sourceforge.net/DTD/sodipodi-0.dtd"
   xmlns="http://www.w3.org/2000/svg"
   xmlns:svg="http://www.w3.org/2000/svg">
  <defs
     id="defs6">
    <clipPath
       clipPathUnits="userSpaceOnUse"
       id="clipPath46">
      <path
         d="m 8002.04,4035.5 c 0,0 -1879.81,-22 -3241.57,1117.6 0,0 1046.84,355.1 2188.61,-133.2 0,0 -1773.31,819.1 -1981.38,2308.6 0,0 1599.36,-606.7 2175.85,-1376.3 0,0 -754.89,843.6 -976.91,2205.1 0,0 1140.51,-932.3 1346.95,-1213.5 0,0 -133.22,1287.5 266.43,2057.1 l 222.02,-4965.4"
         id="path44" />
    </clipPath>
    <clipPath
       clipPathUnits="userSpaceOnUse"
       id="clipPath62">
      <path
         d="m 21835.3,3977.2 c 0,0 2405.9,722.6 3017.6,1587.3 0,0 -1423.7,-10.6 -2172.5,-284.7 0,0 1518.6,738.1 1824.5,1792.5 0,0 -1181.2,-284.7 -1666.3,-748.7 0,0 959.7,1217.4 949.1,2058.5 0,0 -1318.2,-740.5 -1392,-1236 0,0 -80.6,1803 -449.7,2077.2 l -110.7,-5246.1"
         id="path60" />
    </clipPath>
    <clipPath
       clipPathUnits="userSpaceOnUse"
       id="clipPath98">
      <path
         d="m 19462.8,10235.1 c -120.2,27.4 -3370.2,1526.3 -3377.5,1443.2 L 13953.8,11575 c -48.6,2.4 -161.6,-17.8 -159.4,-21.1 -57.9,-7.6 -2953.4,-390.1 -2953.4,-390.1 l 101.9,-2156.2 1974.7,77.1 -904.8,-3402.5 c 1163.3,-1100.8 4765.5,-272.6 5579,0 l -640.6,3456.4 1425.9,-704.8 1085.7,1801.3"
         id="path96" />
    </clipPath>
    <clipPath
       clipPathUnits="userSpaceOnUse"
       id="clipPath126">
      <path
         d="m 13495,13417.3 c 297.4,2798 3032.4,989.3 1837,-979.8 l 212.8,-1087.6 -1061.5,-186.1 -66.8,830.5 c -520,92.7 -921.5,694.3 -921.5,1423"
         id="path124" />
    </clipPath>
    <clipPath
       clipPathUnits="userSpaceOnUse"
       id="clipPath144">
      <path
         d="m 10859.6,10849.4 -3731.64,1899.7 -377.32,-648.5 3024,-2484.7 c 329.96,-252.3 750.56,-326.9 1157.66,-304.8 l -72.7,1538.3"
         id="path142" />
    </clipPath>
    <clipPath
       clipPathUnits="userSpaceOnUse"
       id="clipPath160">
      <path
         d="m 7239.7,12692.2 c 0,0 -360.04,835.9 -415.1,856.7 -135.69,51.1 -43.91,-663.2 -43.91,-663.2 0,0 -1090.43,-188.2 -1076.16,-185.6 14.26,2.5 1046.11,-599.5 1046.11,-599.5 l 489.06,591.6"
         id="path158" />
    </clipPath>
    <clipPath
       clipPathUnits="userSpaceOnUse"
       id="clipPath172">
      <path
         d="m 19240.6,9866.4 3889.6,1393.9 69.6,-758.3 c -491.3,-230.1 -3276.2,-2231.7 -3812.5,-2136.2 -314.5,-29 -636.2,95.5 -921.2,215.8 l 774.5,1284.8"
         id="path170" />
    </clipPath>
  </defs>
  <sodipodi:namedview
     id="namedview4"
     pagecolor="#ffffff"
     bordercolor="#000000"
     borderopacity="0.25"
     inkscape:showpageshadow="2"
     inkscape:pageopacity="0.0"
     inkscape:pagecheckerboard="0"
     inkscape:deskcolor="#d1d1d1"
     showgrid="false"
     inkscape:zoom="0.29737498"
     inkscape:cx="1516.6037"
     inkscape:cy="992.01352"
     inkscape:window-width="1920"
     inkscape:window-height="959"
     inkscape:window-x="0"
     inkscape:window-y="32"
     inkscape:window-maximized="1"
     inkscape:current-layer="g10">
    <inkscape:page
       x="0"
       y="0"
       id="page8"
       width="4000"
       height="2666.6667" />
  </sodipodi:namedview>
  <g
     id="g10"
     inkscape:groupmode="layer"
     inkscape:label="Page 1"
     transform="matrix(1.3333333,0,0,-1.3333333,0,2666.6667)">
    <g
       id="g12"
       transform="scale(0.1)">
      <path
         d="M 2567.76,4035.5 H 26881.7 C 23494.1,15920.9 26286.3,17385 12802.9,13893.6 l -3982.74,707.2 c -768.02,136.3 -1531.13,-263.6 -1856.08,-972.6 L 2567.76,4035.5"
         style="fill:#e3eefd;fill-opacity:1;fill-rule:nonzero;stroke:none"
         id="path18" />
      <path
         d="m 27633.9,3996.8 c -39,38.7 -25456.04,-74.2 -25447.6,38.6 -55.28,38.3 25688.2,144.9 25447.6,-38.6"
         style="fill:#38385c;fill-opacity:1;fill-rule:nonzero;stroke:none"
         id="path20" />
      <path
         d="M 12125.5,15697.4 H 8327.11 c -138.41,0 -250.61,-112.2 -250.61,-250.6 30.7,-2226.9 -463.2,-1494 2770,-1616.2 l 790.1,-594.3 c 41.6,-31.2 101,-1.6 101,50.4 v 543.9 c 215.2,12.6 632.1,-83.9 638.5,250.5 v 1365.7 c 0,138.4 -112.2,250.6 -250.6,250.6"
         style="fill:#a4c4ff;fill-opacity:1;fill-rule:nonzero;stroke:none"
         id="path22" />
      <path
         d="M 10338.3,15076.4 H 8552.34 v 234.9 h 1785.96 v -234.9"
         style="fill:#e3eefd;fill-opacity:1;fill-rule:nonzero;stroke:none"
         id="path24" />
      <path
         d="M 10338.3,14242.8 H 8552.34 v 235 h 1785.96 v -235"
         style="fill:#e3eefd;fill-opacity:1;fill-rule:nonzero;stroke:none"
         id="path26" />
      <path
         d="m 11927.4,14659.6 h -1785.9 v 235 h 1785.9 v -235"
         style="fill:#e3eefd;fill-opacity:1;fill-rule:nonzero;stroke:none"
         id="path28" />
      <path
         d="m 11143.9,15076.4 h -673.3 v 234.9 h 673.3 v -234.9"
         style="fill:#e3eefd;fill-opacity:1;fill-rule:nonzero;stroke:none"
         id="path30" />
      <path
         d="m 11927.4,15076.4 h -673.3 v 234.9 h 673.3 v -234.9"
         style="fill:#e3eefd;fill-opacity:1;fill-rule:nonzero;stroke:none"
         id="path32" />
      <path
         d="m 9225.65,14659.6 h -673.31 v 235 h 673.31 v -235"
         style="fill:#e3eefd;fill-opacity:1;fill-rule:nonzero;stroke:none"
         id="path34" />
      <path
         d="m 10009.2,14659.6 h -673.3 v 235 h 673.3 v -235"
         style="fill:#e3eefd;fill-opacity:1;fill-rule:nonzero;stroke:none"
         id="path36" />
      <path
         d="m 8002.04,4035.5 c 0,0 -1879.81,-22 -3241.56,1117.6 0,0 1046.83,355.1 2188.6,-133.2 0,0 -1773.3,819.1 -1981.38,2308.6 0,0 1599.36,-606.7 2175.85,-1376.3 0,0 -754.89,843.6 -976.91,2205.1 0,0 1140.51,-932.3 1346.95,-1213.5 0,0 -133.22,1287.5 266.43,2057.1 l 222.02,-4965.4"
         style="fill:#a7bd37;fill-opacity:1;fill-rule:nonzero;stroke:none"
         id="path38" />
      <g
         id="g40">
        <g
           id="g42"
           clip-path="url(#clipPath46)">
          <path
             d="m 8250.59,4559.7 c -967.95,479.9 -2457.17,2016.9 -3288.29,2755.4 -16.75,5.9 -7.26,34.8 10.81,27 790.67,-738.5 2420.27,-2281.9 3277.48,-2782.4"
             style="fill:#3e5409;fill-opacity:1;fill-rule:nonzero;stroke:none"
             id="path48" />
          <path
             d="m 8002.04,5575.6 c -3.54,0 -7.09,1.3 -9.89,3.9 -176.56,163.6 -519.64,556.8 -1151.37,1500.7 -379.51,593 -703.63,1045.6 -681.74,1089.5 49.05,-0.6 303.04,-495.4 706.02,-1073.5 C 7349.38,6325 7820.8,5838.1 8002.04,5575.6"
             style="fill:#3e5409;fill-opacity:1;fill-rule:nonzero;stroke:none"
             id="path50" />
          <path
             d="m 8237.84,4253.5 c -341.43,193.5 -3463.79,853.7 -3491.54,902.7 34.64,34.8 786.54,-175.9 1632.34,-364.7 1100.62,-289.4 1790.15,-403.7 1859.2,-538"
             style="fill:#3e5409;fill-opacity:1;fill-rule:nonzero;stroke:none"
             id="path52" />
        </g>
      </g>
      <path
         d="m 21835.3,3977.2 c 0,0 2405.9,722.6 3017.6,1587.2 0,0 -1423.7,-10.5 -2172.5,-284.6 0,0 1518.6,738 1824.5,1792.5 0,0 -1181.2,-284.7 -1666.3,-748.7 0,0 959.7,1217.4 949.2,2058.5 0,0 -1318.3,-740.5 -1392.1,-1236 0,0 -80.6,1803 -449.7,2077.2 l -110.7,-5246.1"
         style="fill:#a7bd37;fill-opacity:1;fill-rule:nonzero;stroke:none"
         id="path54" />
      <g
         id="g56">
        <g
           id="g58"
           clip-path="url(#clipPath62)">
          <path
             d="m 21177.2,4297.5 c 335.7,344.1 3567.2,1256.4 3689.6,1271.1 -28.2,-51.2 -3252.4,-944.2 -3689.6,-1271.1"
             style="fill:#3e5409;fill-opacity:1;fill-rule:nonzero;stroke:none"
             id="path64" />
          <path
             d="m 21710,5359.2 c 227.8,305.3 2537.2,1594.8 2807.5,1720.2 -11.3,-51.7 -2306.8,-1299.7 -2807.5,-1720.2"
             style="fill:#3e5409;fill-opacity:1;fill-rule:nonzero;stroke:none"
             id="path66" />
          <path
             d="m 21778.8,6001.6 c 558.7,406.2 1987.7,2376.8 2017.2,2392.5 -97.6,-270.9 -1771.1,-2359.7 -2017.2,-2392.5"
             style="fill:#3e5409;fill-opacity:1;fill-rule:nonzero;stroke:none"
             id="path68" />
        </g>
      </g>
      <path
         d="m 6936.57,2233.1 c 15.4,-166.7 -65.02,-515 128.97,-607.8 131.32,-104.7 15379.06,0.4 15527.16,-35.8 77.6,0.1 152.4,30.4 208.3,84.6 128,102.7 83.9,348.4 90.8,489.7 l -15955.23,69.3"
         style="fill:#739bfd;fill-opacity:1;fill-rule:nonzero;stroke:none"
         id="path70" />
      <path
         d="M 21592,3891.1 H 8226.35 c -279.63,0 -506.32,226.7 -506.32,506.3 v 7677 c 0,279.7 226.69,506.4 506.32,506.4 H 21592 c 279.7,0 506.3,-226.7 506.3,-506.4 V 4397.5 c 0,-279.7 -226.6,-506.4 -506.3,-506.4"
         style="fill:#38385c;fill-opacity:1;fill-rule:nonzero;stroke:none"
         id="path72" />
      <path
         d="m 8394.09,4500.2 h 13030.2 v 7471.48 H 8394.09 Z"
         style="fill:#a4c4ff;fill-opacity:1;fill-rule:nonzero;stroke:none"
         id="path74" />
      <path
         d="M 22623.7,1911.3 H 7235.04 c -239.39,0 -372.42,277 -222.8,463.8 l 1214.16,1516 H 21592 l 1251.6,-1512.5 c 154,-186 21.6,-467.3 -219.9,-467.3"
         style="fill:#a4c4ff;fill-opacity:1;fill-rule:nonzero;stroke:none"
         id="path76" />
      <path
         d="M 8226.4,3891.1 H 21592 l -14010.33,-805 z"
         style="fill:#739bfd;fill-opacity:1;fill-rule:nonzero;stroke:none"
         id="path78" />
      <path
         d="M 10978.9,4500.2 H 8394.09 v 2749.4 l 2462.41,3585.5 53.3,-1127.3 33.1,-700.2 1974.7,77.1 -765.7,-2879.5 -1173,-1705 m 127.4,6698.6 530.8,772.9 h 4481.8 l -207.7,-301.9 -1957.4,-94.8 c -2.7,0.1 -5.6,0.2 -8.7,0.2 -52.1,0 -152.7,-18.2 -150.7,-21.3 -47.1,-6.2 -1971.4,-260.4 -2688.1,-355.1"
         style="fill:#8db0fe;fill-opacity:1;fill-rule:nonzero;stroke:none"
         id="path80" />
      <path
         d="m 17175,4500.2 h -271.2 c 0,0 245.4,510 213.9,1046.1 200.9,51.4 363.4,98.8 474.1,135.9 l -640.6,3456.4 1425.9,-704.8 273.1,453.1 812.6,1348.2 c -58.7,13.4 -864.1,377.8 -1673.5,737.5 l 665.5,999.1 h 2969.5 V 10889.6 L 17175,4500.2"
         style="fill:#93b6fe;fill-opacity:1;fill-rule:nonzero;stroke:none"
         id="path82" />
      <path
         d="M 21424.3,11971.7 8898.18,11439.5 8394.09,4730.3 v 7241.4 H 21424.3"
         style="fill:#739bfd;fill-opacity:1;fill-rule:nonzero;stroke:none"
         id="path84" />
      <path
         d="m 12609.2,5682.2 -233.1,-1182 h 4527.7 c 0,0 288.5,599.7 199.8,1182 h -4494.4"
         style="fill:#1a1a35;fill-opacity:1;fill-rule:nonzero;stroke:none"
         id="path86" />
      <path
         d="m 15918.2,14579.5 c 491.3,-460.9 582.8,-1199.8 740.8,-1833.7 134.7,-404.7 546.1,-676.7 617.1,-1107.1 74.9,-454.4 -395.4,-893.5 -752,-1095 -512.3,-253.5 -1479.1,-202.2 -2065.1,-199.3 -1375.4,79.7 -2407.3,1816.9 -1662,3022.7 204.2,341.5 362,698.8 554.1,1045.4 264.4,511.1 642.6,635.4 1189.7,656 565.4,67 1034.1,-136.2 1377.4,-489"
         style="fill:#1a1a35;fill-opacity:1;fill-rule:nonzero;stroke:none"
         id="path88" />
      <path
         d="m 19462.8,10235.1 c -120.2,27.4 -3370.2,1526.3 -3377.5,1443.2 L 13953.8,11575 c -48.6,2.4 -161.6,-17.8 -159.4,-21.1 -57.9,-7.6 -2953.4,-390.1 -2953.4,-390.1 l 101.9,-2156.2 1974.7,77.1 -904.8,-3402.5 c 1163.3,-1100.8 4765.5,-272.6 5579,0 l -640.6,3456.4 1425.9,-704.8 1085.7,1801.3"
         style="fill:#ff5c3d;fill-opacity:1;fill-rule:nonzero;stroke:none"
         id="path90" />
      <g
         id="g92">
        <g
           id="g94"
           clip-path="url(#clipPath98)">
          <path
             d="m 12354.4,7531.9 c 1653.8,-749.7 3357.8,-771.8 5019.4,54.1 l 192.3,-618 c -2094.8,-919.7 -3212.6,-849 -5398.5,-137.4 l 186.8,701.3"
             style="fill:#ffffff;fill-opacity:1;fill-rule:nonzero;stroke:none"
             id="path100" />
          <path
             d="m 12621.6,8646.6 c 1961.1,-752.2 2502.7,-799.8 4498.9,-78.6 l 115.1,-527.5 c -2039,-746.1 -2835.8,-932.1 -4715.1,0 l 101.1,606.1"
             style="fill:#ffffff;fill-opacity:1;fill-rule:nonzero;stroke:none"
             id="path102" />
          <path
             d="m 12884.9,8961.5 32.7,123.2 -1974.7,-77.1 -33.1,700.2 2315.8,508 -307.6,-1132.4 c -0.3,0.8 -0.4,1.3 -0.4,1.3 l -32.7,-123.2 v 0"
             style="fill:#f25438;fill-opacity:1;fill-rule:nonzero;stroke:none"
             id="path104" />
          <path
             d="m 18377.1,8433.8 -1425.9,704.8 -184.7,894.3 1883.7,-1146 -273.1,-453.1"
             style="fill:#f25438;fill-opacity:1;fill-rule:nonzero;stroke:none"
             id="path106" />
        </g>
      </g>
      <path
         d="m 14148.7,5115.5 c -365.7,0 -727,26.4 -1058,91.7 307.8,-56.8 646.1,-80.6 995.7,-80.6 863,0 1794.4,144.9 2502.9,296.2 -568.2,-139.2 -1518.9,-307.3 -2440.6,-307.3"
         style="fill:#6b2d33;fill-opacity:1;fill-rule:nonzero;stroke:none"
         id="path108" />
      <path
         d="m 14086.4,5126.6 c -349.6,0 -687.9,23.8 -995.7,80.6 -428.6,84.4 -806.3,233.8 -1077.9,475 v 0 l 293.5,1103.7 c 1003.1,-320.5 1781,-498.6 2544.6,-498.6 101.9,0 203.6,3.2 305.4,9.6 836.5,-394.7 1763.5,-783.8 1763.5,-783.8 -85.8,-26.9 -197.7,-57.8 -330.5,-90.3 -708.5,-151.3 -1639.9,-296.2 -2502.9,-296.2 M 13825.6,7062 c -447.8,83.1 -894,220.7 -1336.7,410.5 l 137.3,516.2 c 303.6,-146.9 578.8,-263.6 836.3,-352.7 111.5,-225 234.5,-430.1 363.1,-574 m -705.8,1398.2 c -107,38.7 -218.5,80.1 -335.2,124.3 l 100.3,377 v 0 l 33.1,121.9 c 5.7,-20.3 80.7,-283.8 201.8,-623.2"
         style="fill:#f25438;fill-opacity:1;fill-rule:nonzero;stroke:none"
         id="path110" />
      <path
         d="m 14850.9,6287.3 c -763.6,0 -1541.5,178.1 -2544.6,498.6 l 182.6,686.6 c 442.7,-189.8 888.9,-327.4 1336.7,-410.5 42.2,-47.2 85,-87.7 128.2,-120.3 209.7,-157.9 689.1,-402.4 1202.5,-644.8 -101.8,-6.4 -203.5,-9.6 -305.4,-9.6"
         style="fill:#f2b4aa;fill-opacity:1;fill-rule:nonzero;stroke:none"
         id="path112" />
      <path
         d="m 13462.5,7636 c -257.5,89.1 -532.7,205.8 -836.3,352.7 l 158.4,595.8 c 116.7,-44.2 228.2,-85.6 335.2,-124.3 91.3,-255.6 208.8,-554.2 342.7,-824.2"
         style="fill:#f2b4aa;fill-opacity:1;fill-rule:nonzero;stroke:none"
         id="path114" />
      <path
         d="m 12884.9,8961.5 32.7,123.2 c 0,0 0.1,-0.5 0.4,-1.3 l -33.1,-121.9"
         style="fill:#ea4f35;fill-opacity:1;fill-rule:nonzero;stroke:none"
         id="path116" />
      <path
         d="m 13495,13417.3 c 297.4,2798 3032.4,989.3 1837,-979.8 l 212.8,-1087.6 -1061.5,-186.1 -66.8,830.5 c -520,92.7 -921.5,694.3 -921.5,1423"
         style="fill:#ffb6a6;fill-opacity:1;fill-rule:nonzero;stroke:none"
         id="path118" />
      <g
         id="g120">
        <g
           id="g122"
           clip-path="url(#clipPath126)">
          <path
             d="m 15332,12437.5 c 0,0 -266.4,-360.9 -775.5,-430 0,0 579.3,-164.1 950.7,25.9 l -175.2,404.1"
             style="fill:#ff8370;fill-opacity:1;fill-rule:nonzero;stroke:none"
             id="path128" />
          <path
             d="m 14166,12527.9 c 0,0 354.4,20.9 480.3,209.8 0,0 4.3,-412 -203.5,-443.9 -198.8,-30.6 -276.8,234.1 -276.8,234.1"
             style="fill:#ffffff;fill-opacity:1;fill-rule:nonzero;stroke:none"
             id="path130" />
          <path
             d="m 13459.3,13141.6 c 440,169.8 1156.4,245.7 1226.2,993.7 0,0 248.5,-604.5 932.4,-718 683.8,-113.4 0,0 0,0 l -703.7,1379.6 -713.5,16.2 -852,-924.3 110.6,-747.2"
             style="fill:#ff8370;fill-opacity:1;fill-rule:nonzero;stroke:none"
             id="path132" />
        </g>
      </g>
      <path
         d="m 13953.8,11575 c 338.7,-1085.9 1851.1,-852.2 2109.1,102.2 L 13953.8,11575"
         style="fill:#ffb6a6;fill-opacity:1;fill-rule:nonzero;stroke:none"
         id="path134" />
      <path
         d="m 10859.6,10849.4 -3731.64,1899.7 -377.32,-648.5 3023.99,-2484.7 c 329.97,-252.3 750.57,-326.9 1157.67,-304.8 l -72.7,1538.3"
         style="fill:#ffb6a6;fill-opacity:1;fill-rule:nonzero;stroke:none"
         id="path136" />
      <g
         id="g138">
        <g
           id="g140"
           clip-path="url(#clipPath144)">
          <path
             d="m 10850.1,10971.4 c 0,0 -598.4,-1553.2 -584.8,-1783.8 l 895.6,-20.3 -13.6,1750.1 -297.2,54"
             style="fill:#ff8370;fill-opacity:1;fill-rule:nonzero;stroke:none"
             id="path146" />
        </g>
      </g>
      <path
         d="m 7139.05,14478.8 -1114.67,-929.9 -1360.29,500.2 c -95.49,-8.2 194.68,-1271.1 186.66,-1329.8 16.19,-91.2 103.29,-152.1 194.58,-136 l 2230.18,394.9 c 91.28,16.2 152.18,103.2 136.02,194.5 -28.59,61.7 -186.77,1302.5 -272.48,1306.1"
         style="fill:#a4c4ff;fill-opacity:1;fill-rule:nonzero;stroke:none"
         id="path148" />
      <path
         d="m 7139.05,14478.8 c -36.57,30 -85.42,44.5 -135.62,35.6 l -2230.18,-394.9 c -46.21,-8.1 -84.58,-34.5 -109.16,-70.4 l 1360.29,-500.2 1114.67,929.9"
         style="fill:#739bfd;fill-opacity:1;fill-rule:nonzero;stroke:none"
         id="path150" />
      <path
         d="m 7239.7,12692.2 c 0,0 -360.04,835.9 -415.11,856.7 -135.68,51.1 -43.89,-663.2 -43.89,-663.2 0,0 -1090.44,-188.2 -1076.17,-185.6 14.26,2.5 1046.11,-599.5 1046.11,-599.5 l 489.06,591.6"
         style="fill:#ffb6a6;fill-opacity:1;fill-rule:nonzero;stroke:none"
         id="path152" />
      <g
         id="g154">
        <g
           id="g156"
           clip-path="url(#clipPath160)">
          <path
             d="m 6780.7,12885.7 c 0,0 -438.45,-362.4 -824.9,-385.1 l -318.68,187.5 1143.58,197.6"
             style="fill:#ff8370;fill-opacity:1;fill-rule:nonzero;stroke:none"
             id="path162" />
        </g>
      </g>
      <path
         d="m 19240.6,9866.4 3889.6,1393.9 69.6,-758.3 c -491.3,-230.1 -3276.2,-2231.7 -3812.5,-2136.2 -314.5,-29 -636.2,95.5 -921.2,215.8 l 774.5,1284.8"
         style="fill:#ffb6a6;fill-opacity:1;fill-rule:nonzero;stroke:none"
         id="path164" />
      <g
         id="g166">
        <g
           id="g168"
           clip-path="url(#clipPath172)">
          <path
             d="m 19322.4,10002.1 c 0,0 -6.2,-1219.6 -210.8,-1703.1 l -843.2,248 477.4,1319.4 576.6,135.7"
             style="fill:#ff8370;fill-opacity:1;fill-rule:nonzero;stroke:none"
             id="path174" />
        </g>
      </g>
      <path
         d="m 25299,10026.7 h -1983.9 c -130.2,0 -235.8,105.6 -235.8,235.8 V 12065 c 0,130.2 105.6,235.8 235.8,235.8 h 1984 c 130.2,0 235.7,-105.6 235.7,-235.8 v -1802.5 c 0,-130.2 -105.5,-235.8 -235.8,-235.8"
         style="fill:#a4c4ff;fill-opacity:1;fill-rule:nonzero;stroke:none"
         id="path176" />
      <path
         d="m 23820.8,10404.7 c 329.8,-73 556.1,259.4 766.5,449.7 172.6,180.9 516,413.2 469.1,704.4 -2.7,132.1 -49.8,261.3 -143.5,356 -147.3,189.1 -284.5,-72.9 -397.1,-158 -47.2,-45.9 -48.3,-121.3 -2.5,-168.5 l 225.4,-232.3 c -167.1,-162.1 -496.8,-482 -663.8,-644.1 l -225.5,232.2 c -45.8,47.3 -121.3,48.4 -168.5,2.5 -65.8,-84.6 -326.8,-232.1 -200.5,-360.5 87.4,-99.9 207,-169.2 340.4,-181.4"
         style="fill:#739bfd;fill-opacity:1;fill-rule:nonzero;stroke:none"
         id="path178" />
      <path
         d="m 23079.3,11242.1 c 0,0 912.5,-220.7 889.5,-262.9 -23,-42.3 -100.9,-111.1 -208.5,-122.6 -106.5,-10.6 -571.7,-25.3 -746,-30.7 l 65,416.2"
         style="fill:#ffb6a6;fill-opacity:1;fill-rule:nonzero;stroke:none"
         id="path180" />
      <path
         d="m 23079.3,10827.9 c 0,0 -183.9,-200 -150,-493.4 l 150,92.9 v 400.5"
         style="fill:#ff8370;fill-opacity:1;fill-rule:nonzero;stroke:none"
         id="path182" />
      <path
         d="m 14724.7,14853.2 c 0,0 -11.8,-1045.5 -683.9,-1211.9 l 199.6,472.4 c 0,0 -279.5,-532.3 -891.7,-519 49.2,706.7 415.8,1507.3 1376,1258.5"
         style="fill:#1a1a35;fill-opacity:1;fill-rule:nonzero;stroke:none"
         id="path184" />
      <path
         d="m 14724.7,14853.2 c -101.5,-614 448.5,-1157.6 893.2,-1435.9 441.3,726.9 -138.4,1358.7 -893.2,1435.9"
         style="fill:#1a1a35;fill-opacity:1;fill-rule:nonzero;stroke:none"
         id="path186" />
      <path
         d="m 19595.1,14528.4 2135.7,926.3 -1460.5,-1417.2 z"
         style="fill:#a4c4ff;fill-opacity:1;fill-rule:nonzero;stroke:none"
         id="path188" />
      <path
         d="m 20270.3,14037.5 371.2,-601.3 1089.3,2018.5 z"
         style="fill:#ffffff;fill-opacity:1;fill-rule:nonzero;stroke:none"
         id="path190" />
      <path
         d="m 21730.8,15454.7 -1022.2,-1590.1 691.5,-345.6 z"
         style="fill:#a4c4ff;fill-opacity:1;fill-rule:nonzero;stroke:none"
         id="path192" />
      <path
         d="m 20443.5,13085.5 c -15.8,-0.2 -27.9,15.7 -23.3,30.9 20.3,71.3 29.5,112.1 29.6,112.5 6.5,30.7 54.7,19.9 47.3,-10.7 -0.4,-1.7 -9.6,-42.3 -30.3,-115.1 -3,-10.6 -12.7,-17.6 -23.3,-17.6 z m -70,-223 c -57.8,10.9 11.9,106.4 13.2,142.5 9,30.1 56.2,15.4 46.3,-14.5 -19.8,-36.1 -16.8,-114 -59.5,-128 z m -80.1,-219.3 c -59.1,11.5 15.3,105.7 18.4,141.8 10.4,29.7 56.8,12.8 45.6,-16.6 -21.4,-35.9 -21.8,-110.9 -64,-125.2 z m -88.9,-215.5 c -60.5,11.9 18.5,105 23.2,140.8 11.5,29.2 57.2,10.4 44.8,-18.5 -23.3,-36.3 -25.3,-106.3 -68,-122.3 z m -97.4,-211.8 c -61.9,12.7 21.3,103.6 27.8,139.8 12.7,28.7 57.6,8.1 44,-20.3 -24.9,-36.4 -29.5,-103.5 -71.8,-119.5 z m -105.8,-207.6 c -63.4,16.2 24.7,101.6 32.4,138.5 13.8,28.2 57.9,5.8 43.2,-22 -25.9,-35.2 -33.7,-100.5 -75.6,-116.5 z m -114.2,-203.1 c -64.8,16.9 27.9,101 37,137.1 15,27.6 58.1,3.4 42.3,-23.8 -27,-34.2 -37.8,-97.2 -79.3,-113.3 z m -122.7,-198 c -66.3,17.8 31.2,100 41.8,135.3 16.2,27 58.2,1 41.2,-25.5 -28.1,-33.2 -41.8,-93.8 -83,-109.8 z m -131.3,-192.4 c -19,-0.6 -31.4,23 -19.7,38.3 29.4,25 55.1,120 100.1,101.4 11.1,-7.5 13.9,-22.6 6.4,-33.7 -29.7,-32.7 -45.9,-90 -86.8,-106 z m -139.9,-186.2 c -19.5,-0.6 -31.8,24.2 -19,39.3 30.8,23.9 60.5,117.2 104.6,96.6 10.7,-8 12.9,-23.2 4.9,-33.9 -30.6,-31.3 -49.9,-86 -90.5,-102 z m -148.7,-179.2 c -19.9,-0.6 -32.1,25.3 -18.2,40.2 31.8,22.3 66.1,114.1 109.2,91.4 10.3,-8.5 11.7,-23.8 3.1,-34.1 -31.7,-30.1 -53.7,-81.7 -94.1,-97.5 z m -157.4,-171.5 c -20.5,-0.7 -32.5,26.5 -17.4,41.1 33.1,20.8 71.7,110.5 113.6,85.8 9.9,-9.1 10.6,-24.4 1.5,-34.3 -32.8,-28.6 -57.4,-76.9 -97.7,-92.6 z m -166.1,-163 c -21.1,-0.8 -32.8,27.8 -16.5,42 34.1,18.9 77.4,106.5 118,79.6 9.3,-9.5 9.2,-24.9 -0.4,-34.3 -33.8,-27.1 -61,-71.9 -101.1,-87.3 z m -174.7,-153.8 c -21.7,-0.8 -33.1,29.3 -15.5,42.9 35,16.9 83.1,102.1 122.1,73.1 33.1,-22.8 -85.5,-109.4 -106.6,-116 z m -183,-143.7 c -22.4,-0.9 -33.3,30.7 -14.4,43.7 35.9,14.9 88.7,97.3 126,66.1 29.9,-27.8 -88.5,-100.3 -111.6,-109.8 z m -191,-133 c -23.1,-0.8 -33.5,32.4 -13.3,44.6 36.9,12.9 94.2,91.9 129.7,58.6 27.1,-31.4 -91.6,-91.7 -116.4,-103.2 z m -198.4,-121.4 c -23.9,-0.9 -33.7,34 -12.1,45.3 37.7,10.7 99.4,86.2 132.9,50.9 23.8,-35.1 -94.4,-83.2 -120.8,-96.2 z m -205.4,-109.3 c -24.6,-0.9 -33.7,35.6 -10.7,46 38.3,8.4 104.3,80 135.6,42.8 20.2,-38.6 -96.8,-74.6 -124.9,-88.8 z m -211.5,-96.8 c -84.4,37.7 68.1,74.6 96.4,93.1 28.4,13.5 49,-31.4 20.2,-44.1 -38.6,-16 -76.6,-37.7 -116.6,-49 z m -216.9,-84.1 c -26.2,-0.8 -33.5,39 -8.1,47.2 37.7,3.8 115.7,67 139.8,26.3 11.6,-44.7 -99.9,-57.8 -131.7,-73.5 z m -221.5,-71 c -27,-0.9 -33.3,40.6 -6.7,47.5 38,1.7 119.4,60.2 141.1,18.1 8.9,-45.7 -101.7,-50.7 -134.4,-65.6 z m -225.2,-58.2 c -27.8,-0.8 -33.1,42.3 -5.3,47.9 37.9,-0.5 122.7,53.2 141.8,9.9 6.2,-46.3 -103.2,-43.8 -136.5,-57.8 z m -228.1,-45.5 c -28.7,-0.7 -32.8,43.9 -4,48.2 37.8,-2.6 125.4,46.3 142.2,2 1.5,-48 -103.2,-36.7 -138.2,-50.2 z M 16735,9665 c -12.1,0 -22.6,9.1 -24.1,21.4 2.1,47.3 101.6,27.9 136,41.9 31.2,4.9 38.1,-44 7,-48 -39.1,-5.5 -79.1,-11.2 -118.9,-15.3 z m -231.7,-22 c -30,-0.7 -32.2,46.4 -2,48.4 l 85.3,7.2 c 20.6,1.7 53.5,10.1 56.8,-19.2 2,-29.6 -32,-27.2 -52.7,-29.1 -2.7,0 -84.6,-7.5 -87.4,-7.3 z m -231.8,-20.1 c -30,-0.6 -32.3,46.3 -2.1,48.4 37.1,-5.4 130.3,34.2 142.2,-12 -3.8,-47.6 -104.2,-24.8 -140.1,-36.4 z m -231.8,-20.6 c -29.9,-0.6 -32.3,46.3 -2.2,48.4 37.2,-5.3 130.3,34.6 142.3,-11.6 -3.7,-47.7 -104.2,-25.1 -140.1,-36.8 z m -231.8,-21.2 c -29.9,-0.7 -32.3,46.1 -2.2,48.4 37.2,-5.2 130.1,34.9 142.3,-11.3 -3.6,-47.6 -104.1,-25.4 -140.1,-37.1 z m -231.7,-22 c -29.8,-0.6 -32.3,46.1 -2.2,48.4 37.1,-5.1 129.9,35.3 142.3,-10.8 -3.5,-47.7 -104.2,-25.7 -140.1,-37.6 z m -231.6,-22.8 c -29.8,-0.7 -32.4,46 -2.4,48.4 37.2,-4.9 129.9,35.8 142.4,-10.3 -3.3,-47.7 -104.1,-26.1 -140,-38.1 z m -231.6,-23.8 c -29.7,-0.6 -32.3,45.9 -2.5,48.4 37.2,-4.7 129.8,36.4 142.5,-9.6 -3.1,-47.7 -104.1,-26.6 -140,-38.8 z m -231.4,-24.7 c -29.6,-0.7 -32.4,45.7 -2.6,48.3 37.1,-4.6 129.8,37.1 142.4,-9 -2.8,-47.7 -104,-27 -139.8,-39.3 z m -231.4,-25.9 c -12.1,0 -22.6,9.1 -24,21.5 2.2,47.6 101.8,27.4 137,39.9 31.2,3.9 36.7,-45.1 5.4,-48.2 -39.5,-4.2 -78.9,-9.1 -118.4,-13.2 z m -231.2,-27.1 c -29.5,-0.7 -32.5,45.4 -2.9,48.3 37.3,-4.2 129.4,38.4 142.6,-7.5 -2.4,-47.7 -104,-28.2 -139.7,-40.8 z m -231.1,-28.4 c -29.3,-0.7 -32.5,45.2 -3,48.3 37.3,-3.9 129.1,39 142.6,-6.7 -2.1,-47.8 -103.9,-28.8 -139.6,-41.6 z m -230.9,-29.8 c -12,0 -22.4,8.8 -24,21 1.4,47.7 101.4,29.2 136.4,42.4 31.1,4.5 37.5,-44.6 6.2,-48.2 -39.6,-4.9 -79,-10.6 -118.6,-15.2 z m -230.7,-31.4 c -11.9,0 -22.3,8.8 -24,20.9 1.1,47.7 101.2,29.9 136.1,43.3 31.1,4.6 37.8,-44.3 6.5,-48.1 -39.5,-5.1 -79,-11.2 -118.6,-16.1 z m -230.5,-32.9 c -11.9,0 -22.2,8.7 -24,20.7 0.8,47.7 101,30.6 135.8,44.2 31,4.9 38.1,-44 6.9,-48 -39.6,-5.4 -79.1,-11.8 -118.7,-16.9 z m -230.3,-34.6 c -11.8,0 -22.1,8.6 -23.9,20.5 0.4,47.7 100.7,31.4 135.4,45.3 31.1,5 38.4,-43.8 7.2,-48 -39.6,-5.7 -79.1,-12.5 -118.7,-17.8 z m -230,-36.5 c -11.7,0 -22,8.5 -23.9,20.4 0,47.7 100.5,32.1 135.1,46.3 31,5.3 38.8,-43.4 7.6,-47.9 -39.6,-6 -79.1,-13.2 -118.8,-18.8 z m -229.7,-38.3 c -28.6,-0.7 -32.8,43.9 -4,48.1 37.3,-2.2 127.3,44.7 142.8,-0.4 -0.2,-47.7 -103.5,-33.7 -138.8,-47.7 z m -229.3,-40.3 c -11.5,0 -21.8,8.2 -23.9,19.9 -0.8,47.7 100,33.9 134.3,48.6 30.9,5.8 39.5,-42.7 8.4,-47.7 -39.6,-6.6 -79.1,-14.7 -118.8,-20.8 z m -229,-42.4 c -28.4,-0.8 -32.9,43.3 -4.5,48 37.4,-1.6 126.5,47 142.8,2.1 2.7,-46.5 -104.4,-36.3 -138.3,-50.1 z m -228.6,-44.7 c -28.2,-0.7 -33,43.1 -4.7,48.1 37.4,-1.3 126.1,48.2 142.8,3.4 3.2,-46.4 -104.3,-37.5 -138.1,-51.5 z m -228.1,-46.9 c -28.1,-0.7 -33,42.8 -5,48 37.5,-0.9 125.7,49.5 142.8,4.9 3.6,-46.3 -104.1,-38.7 -137.8,-52.9 z m -227.6,-49.3 c -27.9,-0.8 -33.1,42.5 -5.2,47.9 37.4,-0.4 125,50.9 142.7,6.5 4.1,-46.3 -103.9,-39.9 -137.5,-54.4 z m -227,-51.8 c -27.8,-0.8 -33.2,42.2 -5.5,47.9 37.4,0 124.5,52.2 142.6,8 4.6,-46.1 -103.6,-41.2 -137.1,-55.9 z m -226.4,-54.3 c -27.6,-0.8 -33.2,41.8 -5.8,47.8 37.5,0.4 123.9,53.6 142.5,9.6 5.2,-46 -103.4,-42.5 -136.7,-57.4 z m -226.3,-55 c -27.7,-0.8 -33.2,42 -5.7,47.9 l 113.2,27.2 c 30.4,7.9 42.1,-40.1 11.4,-47.1 l -113.2,-27.3 c -1.9,-0.4 -3.9,-0.7 -5.7,-0.7 z m -226.2,-55.8 c -27.4,-0.8 -33.2,41.6 -6,47.7 38,1 123.7,54.5 142.6,10.7 5.4,-46 -102.8,-43.2 -136.6,-58.4 z m -224.8,-60.6 c -27.1,-0.9 -33.4,40.7 -6.7,47.5 34.3,1.1 122.6,57.9 142.3,14.2 8.2,-44.5 -106.3,-47.3 -135.6,-61.7 z m -222.5,-69 c -26.4,-0.8 -33.5,39.4 -7.7,47.3 35.1,3 120.5,62.9 141.8,19.9 9.9,-43.6 -104.3,-51.9 -134.1,-67.2 z m -218.3,-80.8 c -25.6,-0.9 -33.7,37.5 -9.2,46.6 36.2,5.5 114.4,70 140.5,28.2 13.9,-41 -103.2,-59.7 -131.3,-74.8 z m -211.64,-97 c -82.9,35.4 64.56,78.7 94.65,97.1 28.39,13.5 48.99,-31.5 20.16,-44.1 -40.03,-16 -75.85,-40.6 -114.81,-53 z m -200.51,-118 c -22.93,-0.9 -33.5,31.8 -13.61,44.3 34.15,13 99.74,91 133,54.2 6.79,-11.6 2.91,-26.5 -8.64,-33.2 -39.25,-19.5 -71.86,-51.5 -110.75,-65.3 z m -182.36,-144.3 c -21.11,-0.8 -32.82,27.8 -16.57,41.9 31.69,18.5 85.78,105.1 123.92,73.1 8.3,-10.6 6.49,-25.8 -4.02,-34.1 -37.34,-23.6 -64.26,-65.8 -103.33,-80.9 z m -141.63,-182.9 c -17.23,-0.4 -29.71,18.9 -21.96,34.5 19.19,26.6 52.98,130.4 98.97,107 10.48,-8.4 12.22,-23.6 3.88,-34.1 -36.08,-32 -40.62,-92 -80.89,-107.4 z M 9329.24,7783 c -47.52,14.4 -29.21,103 -30.2,142.7 3.29,31.2 52.35,25.5 48.18,-5.8 -16.6,-37.3 32.03,-130.8 -17.98,-136.9 z m 105.06,-205.4 c -42.41,16.6 -62.6,77.1 -85.61,109.8 -15.09,27.6 28.57,50.8 42.88,22.7 4.77,-34.2 111.18,-114.2 42.73,-132.5 z m 165.49,-163.1 c -41.13,15.4 -72.61,58.4 -104.1,83.9 -22.83,21.6 11.62,57.1 33.85,34.8 15.99,-28.2 147.01,-93.3 70.25,-118.7 z m 190.38,-134 c -28.38,14 -142.2,67.2 -117.12,102.2 35.43,32.9 90.45,-44.2 129.94,-57.3 20.75,-11.9 10.61,-45.8 -12.82,-44.9 z m 202.33,-115.9 c -27.73,14.3 -144.18,55 -123.02,92.8 32.29,36.4 96.64,-37.5 134.52,-47.2 22.2,-10.9 12.7,-46.5 -11.5,-45.6 z m 208.2,-104.8 c -28.6,14.5 -145.3,46.7 -126.4,86.2 30.3,38 98.4,-32.3 136.7,-40 23.3,-10.1 14.6,-47.2 -10.3,-46.2 z m 213.1,-94 c -30.1,15.3 -144.5,37.4 -129.3,79.7 25.8,39.7 101.4,-27.3 138.6,-33 24.4,-9.2 16.3,-47.6 -9.3,-46.7 z m 217.5,-83.4 c -30.9,14.9 -144.8,30 -131.9,73.3 23.8,41 102.6,-22.3 140,-26.2 25.4,-8.2 18.1,-48 -8.1,-47.1 z m 221,-73.3 c -32.5,15.3 -143,21.8 -134,67.3 22,42 103.5,-17.6 141.1,-19.8 26.2,-7.3 19.7,-48.3 -7.1,-47.5 z m 223.9,-63.5 c -33.5,14.8 -142.7,15.4 -135.7,61.4 20.1,43 103.7,-12.8 141.8,-13.7 27.1,-6.3 21.3,-48.5 -6.1,-47.7 z m 226.2,-54.4 c -33.7,14.1 -142,9.5 -137,56 18.4,43.7 104.4,-8.8 142.2,-8.1 27.9,-5.4 22.8,-48.7 -5.2,-47.9 z m 228.2,-45.9 c -33.9,13.3 -141.4,4.2 -138.1,50.9 16.6,44.5 104.9,-4.9 142.4,-2.8 28.5,-4.5 24.2,-48.8 -4.3,-48.1 z m 4296.3,-24.3 c -31.2,-0.5 -31.6,48.5 -0.3,48.5 36.9,-8 133.1,23.8 141,-23.3 -7.6,-47 -103.8,-16 -140.7,-25.2 z m 349.3,-1.9 c -35.7,9.8 -133.5,-20.4 -140.7,26.7 8.1,47.1 105.7,14.3 141.3,21.8 31,-0.3 30.4,-49 -0.6,-48.5 z m -582.1,-3.7 c -30.8,-0.6 -31.8,47.9 -0.8,48.5 36.7,-7.3 132.5,26.7 141.5,-20.3 -6.6,-47.2 -104.3,-18.3 -140.7,-28.2 z m 814.7,-6.2 c -35.3,10.9 -134.7,-16.1 -140.5,31.2 9.7,46.9 106.2,11 141.9,17.3 30.5,-1.3 29.1,-49 -1.4,-48.5 z m -4648.6,-1.8 c -36,13.2 -138.6,-1.8 -138.9,46.2 15.1,45 104.4,-1.2 142.4,2 29.1,-3.7 25.5,-48.9 -3.5,-48.2 z m 3601.3,-1.7 c -30.6,-0.6 -31.9,47.5 -1.2,48.4 36.9,-6.7 131.9,29 141.8,-17.9 -5.9,-47.3 -104.3,-20.1 -140.6,-30.5 z m -232.5,-12.8 c -30.4,-0.5 -32,47.2 -1.4,48.5 36.8,-6.4 131.8,30.5 141.9,-16.2 -5.2,-47.5 -104.3,-21.5 -140.5,-32.3 z m 1511.9,-1.9 c -35,12.2 -135.9,-11.1 -140.2,36.4 11.2,46.5 106.9,7.1 142.5,12 30,-2.4 27.5,-49 -2.3,-48.4 z m -1744.2,-12.7 c -30.4,-0.5 -32.1,47 -1.6,48.5 36.9,-6.2 131.4,31.3 142,-15.2 -4.9,-47.5 -104.4,-22.3 -140.4,-33.3 z m -2905.8,-1.6 c -35.7,12.3 -137.8,-6.1 -139.6,41.9 13.7,45.5 105.1,2 142.4,6.4 29.6,-2.8 26.7,-49 -2.8,-48.3 z m 4881.1,-13.5 c -35.4,13.6 -137,-5.2 -139.5,42.3 13.1,46.1 106.3,2.8 142.9,6 29.2,-3.5 25.8,-49 -3.4,-48.3 z m -2207.6,-0.2 c -30.3,-0.6 -32.1,47 -1.6,48.4 l 116.1,7.7 c 13.4,1 25,-9.2 25.9,-22.6 0.8,-13.3 -9.3,-24.9 -22.6,-25.8 -1.7,0 -116.3,-7.8 -117.8,-7.7 z m -2442,-10.3 c -35.9,11.5 -136.9,-9.9 -140,37.9 12.4,45.9 104.9,5.1 142.1,10.5 30.1,-2.1 27.8,-49 -2.1,-48.4 z m 2209.7,-4.7 c -12.7,0 -23.4,9.8 -24.2,22.7 4.7,47.4 102.9,22.1 138.8,33.1 31.2,2.7 34.7,-46.9 3.1,-48.4 -39.3,-2.5 -78.5,-5.1 -117.7,-7.4 z m -1977.7,-13.3 c -36,10.7 -136,-13.4 -140.3,34.4 11.2,46.2 104.9,7.7 141.9,14 30.4,-1.4 28.8,-49 -1.6,-48.4 z m 1745.3,-0.3 c -30.5,-0.5 -32,47.4 -1.3,48.5 36.9,-6.7 131.3,30.2 141.8,-16.3 -5.1,-47.5 -104.5,-21.7 -140.5,-32.2 z m 2901.9,-9.8 c -33.8,14.2 -140.2,2.7 -138.5,49 15.3,45.4 106.5,-2.3 143.1,-0.9 28.3,-4.8 23.8,-48.9 -4.6,-48.1 z m -3134.4,-1 c -30.8,-0.5 -31.8,47.8 -0.9,48.5 38.1,-7.6 128.8,29.1 141.4,-18.1 -5.5,-47.5 -104.5,-20.5 -140.5,-30.4 z m -1280.3,-1.5 c -36.2,10 -135.1,-16.5 -140.5,31.2 10.3,46.4 104.6,10.1 141.5,17.3 30.8,-0.9 29.7,-49.1 -1,-48.5 z m 1047.6,-5.6 c -31,-0.5 -31.7,48.2 -0.5,48.5 35.6,-7.4 134.2,25.8 141.1,-20.4 -4.3,-46.5 -105.4,-19.1 -140.6,-28.1 z m -814.9,-2.2 c -36.3,9.3 -134.3,-19.1 -140.6,28.3 9.3,46.7 104.5,12.3 141.2,20.2 31.1,-0.3 30.5,-49 -0.6,-48.5 z m 582.2,-2.3 c -31.2,-0.5 -31.7,48.6 -0.4,48.5 36.8,-8.1 132.1,25 141,-21.8 -6.8,-47.3 -104.3,-17.6 -140.6,-26.7 z m -349.2,-1.3 c -39,0.3 -77.9,0.7 -116.9,1.3 -13.4,0.2 -24.1,11.2 -23.9,24.6 8.5,46.8 104.4,14.2 140.9,22.6 31.4,0.3 31.2,-49 -0.1,-48.5 z m 116.4,-0.4 c -13.4,0 -24.3,10.9 -24.3,24.3 7.6,46.9 104.1,15.7 140.5,24.7 31.4,0.7 31.8,-48.7 0.4,-48.5 -38.9,-0.3 -77.7,-0.5 -116.6,-0.5 z m 4059.8,-36.3 c -33.1,15.3 -141.1,10.4 -137,56.4 17.6,44.6 106.5,-8 142.9,-8.7 27.3,-6.1 21.6,-48.6 -5.9,-47.7 z m 223.8,-63.6 c -31.5,15.6 -143.3,20.4 -134.8,64.3 22.8,43.6 104.1,-14.1 142.2,-17 26.1,-7.4 19.3,-48.2 -7.4,-47.3 z m 219.5,-77.5 c -22.6,4.5 -52,19.5 -74.4,26.5 -21.3,10.6 -67.2,12.3 -57.6,46.4 20.3,39.5 79.1,-9.6 110.1,-14.1 35.9,-6.3 73.4,-43.8 21.9,-58.8 z m 211.7,-96.7 c -26,14.2 -146.6,50 -126.6,85.4 29.1,40 101.7,-30.3 137.9,-39.6 22.4,-10.8 13.1,-46.7 -11.3,-45.8 z m 199.6,-119.5 c -39.1,14.1 -71.9,46.9 -110.4,66.2 -11.5,6.9 -15.3,21.8 -8.4,33.3 33.5,36.4 97.7,-41.6 132.5,-55.2 19.8,-12.5 9.2,-45.2 -13.7,-44.3 z m 182.8,-143.9 c -39.2,15.1 -67.1,56.9 -103.9,80.2 -10.6,8.3 -12.4,23.6 -4.1,34.1 37.9,32 91.7,-53.7 124.3,-72.1 16.6,-14 5,-43 -16.3,-42.2 z m 160.4,-168.4 c -39.7,15.7 -60.4,67.3 -94.6,94.7 -9.2,9.8 -8.9,25.1 0.8,34.3 42.2,26.4 83,-66.2 112.5,-89.4 13.2,-15 0.9,-40.2 -18.7,-39.6 z m 125,-195.4 c -40.1,14.2 -42.4,78 -75.7,113.1 -17.7,26 23.5,53.2 40.5,26.7 16.7,-38 97.3,-123 35.2,-139.8 z m 15,-226 c -52.2,10.9 1,77 -9.2,112.9 -11.9,41.8 30.4,74.1 47.3,27.2 -1.4,-42.7 9.4,-123.3 -38.1,-140.1 z m -145.8,-175.4 c -78,26.5 57.1,86.6 68.5,116.8 20.3,24 57.6,-8.4 36.6,-31.8 -27.8,-27.8 -62.2,-69.7 -105.1,-85 z m -207.1,-105.4 c -25.8,-0.9 -33.6,38.3 -8.6,46.9 42.3,5.9 109.3,72.1 137.1,34.7 16.2,-44 -94,-65.9 -128.5,-81.6 z m -222.7,-68.3 c -27.6,-0.8 -33.2,41.8 -5.8,47.8 40.9,0.7 120.2,56.4 141.4,14.3 8.1,-46.2 -100.3,-47.7 -135.6,-62.1 z m -228.3,-47.1 c -28.6,-0.7 -32.8,44 -4,48.2 39.6,-2.3 125.2,46.5 142.4,2.4 1.6,-48 -101.7,-36.9 -138.4,-50.6 z m -230.7,-33.1 c -12.1,0 -22.6,9.1 -24.1,21.4 2,47.4 102.9,28.2 136.3,42 31.1,4.9 38.1,-44 6.8,-48 -38.4,-5.4 -78.6,-11.1 -119,-15.4 z m -232,-23 c -12.5,0 -23.1,9.6 -24.1,22.3 3.7,47.3 103.6,24.2 138,36.5 31.2,3.5 36.1,-45.7 4.7,-48.3 -38.5,-3.7 -78.5,-7.5 -118.6,-10.5 z m -232.6,-15.2 c -30.6,-0.5 -32,47.5 -1.2,48.5 38.2,-6.9 131.1,30.4 141.8,-16 -4.8,-47.6 -103.4,-22.2 -140.6,-32.5 z m -815.3,-4.4 c -30.9,5.5 -77.7,-10.7 -80.5,28.6 7.6,38.2 50.5,17.1 81.5,19.9 30.8,-0.9 29.7,-49 -1,-48.5 z m 582.3,-4.2 c -13.1,0 -23.9,10.5 -24.3,23.7 6.5,47.1 104.1,18.3 139.9,28.4 31.3,1.3 33.4,-47.7 1.8,-48.5 -38.8,-1.4 -78.3,-2.7 -117.4,-3.6 z m -349.6,-2 c -37.8,8.8 -133.9,-20.3 -140.6,27 9,46.7 102.7,13.2 140.9,21.5 31.3,0 31,-49 -0.3,-48.5 z m 116.9,-0.8 -0.5,48.5 c 37.5,-8.7 132.4,23.6 140.8,-23.2 -7.1,-47.2 -103.6,-16.8 -140.3,-25.3"
         style="fill:#ffffff;fill-opacity:1;fill-rule:nonzero;stroke:none"
         id="path194" />
      <path
         d="m 9426.83,6149.4 c -31.87,-1865.4 -2807.05,-1865.1 -2838.64,0.1 31.86,1865.3 2807.04,1865 2838.64,-0.1"
         style="fill:#ffffff;fill-opacity:1;fill-rule:nonzero;stroke:none"
         id="path196" />
      <path
         d="m 7957,6392.9 -242.69,274.2 c -61.2,69.2 -166.91,75.7 -236.09,14.5 l -132.69,-117.4 c -69.19,-61.2 -75.66,-166.9 -14.45,-236 l 581.72,-657.5 c 128.15,-131.4 248.8,-9 348.18,84.7 l 145.88,129 1423.23,1258.9 c 69.19,61.2 75.66,166.9 14.45,236.1 -91,104.3 -202.09,270.8 -353.49,147.1 L 8193.09,6378.4 c -69.19,-61.2 -174.89,-54.7 -236.09,14.5"
         style="fill:#3875ff;fill-opacity:1;fill-rule:nonzero;stroke:none"
         id="path198" />
      <path
         d="m 18144.9,15454.7 h -246.4 v 469.7 c 0,68 55.2,123.1 123.2,123.1 68.1,0 123.2,-55.1 123.2,-123.1 v -469.7"
         style="fill:#739bfd;fill-opacity:1;fill-rule:nonzero;stroke:none"
         id="path200" />
      <path
         d="m 18332.8,13978 c -7,-408.9 -615.2,-408.8 -622.2,0 7,408.8 615.3,408.8 622.2,0"
         style="fill:#3875ff;fill-opacity:1;fill-rule:nonzero;stroke:none"
         id="path202" />
      <path
         d="m 18708.7,14289 c 8.2,564.2 100.2,1327.5 -681.8,1363.3 -782.2,-35.8 -689.8,-799.8 -681.7,-1363.3 -189.6,1.1 -170,-174.5 -167.5,-309.8 h 1698.5 c 2.4,135.5 22,310.8 -167.5,309.8"
         style="fill:#a4c4ff;fill-opacity:1;fill-rule:nonzero;stroke:none"
         id="path204" />
      <path
         d="m 17345.2,14894.2 v 76.5 c 1.8,-4.8 3.7,-9.4 5.7,-14.1 -2.2,-20.6 -4.1,-41.4 -5.7,-62.4"
         style="fill:#adc6fd;fill-opacity:1;fill-rule:nonzero;stroke:none"
         id="path206" />
      <path
         d="m 18384.3,14289 h -1039.1 v 605.2 c 1.6,21 3.5,41.8 5.7,62.4 195.6,-463.6 1033.4,-667.6 1033.4,-667.6"
         style="fill:#8db0fe;fill-opacity:1;fill-rule:nonzero;stroke:none"
         id="path208" />
      <path
         d="m 19326.5,14311 c -8.6,-506.9 -762.8,-506.8 -771.4,0.1 8.7,506.9 762.9,506.8 771.4,-0.1"
         style="fill:#3875ff;fill-opacity:1;fill-rule:nonzero;stroke:none"
         id="path210" />
      <path
         d="m 18815,14565.1 189.3,33.4 43.3,-380.5 -141.3,-24.9 z m 124.6,-432.8 c 49.6,75.6 167.6,-6.5 114.5,-79.1 -50.1,-74.2 -167.7,5.4 -114.5,79.1"
         style="fill:#ffffff;fill-opacity:1;fill-rule:nonzero;stroke:none"
         id="path212" />
      <path
         d="m 19957.6,5678.8 c -896.5,27 -896.3,1329.3 0,1356.2 896.5,-27 896.3,-1329.4 0,-1356.2 z m 942.1,525.4 h 222.3 v 400.2 h -242.6 c -28.4,106.4 -76.4,209.1 -139.5,299.1 l 182.5,182.5 -283,283 -192.7,-192.7 c -88.8,53.1 -187.9,92.2 -289,113.7 v 278.5 h -400.2 V 7290 c -101.1,-21.5 -200.2,-60.6 -289,-113.7 l -192.7,192.7 -283,-283 182.6,-182.5 c -63.2,-90 -111.2,-192.7 -139.6,-299.1 h -242.6 v -400.2 h 222.3 c 18.8,-117.9 61.1,-233.6 122.6,-336.3 l -145.3,-145.3 283,-283 135.1,135.2 c 103.3,-72.5 223.1,-124.8 346.6,-151 v -183.7 h 400.2 v 183.7 c 123.5,26.2 243.3,78.5 346.6,151 l 135.1,-135.2 283,283 -145.3,145.3 c 61.5,102.7 103.8,218.4 122.6,336.3"
         style="fill:#e3eefd;fill-opacity:1;fill-rule:nonzero;stroke:none"
         id="path214" />
      <path
         d="m 18424.2,6777.6 c -316.2,5.1 -316.2,476.1 0,481.1 316.2,-5.1 316.1,-476 0,-481.1 z m 334.1,186.4 h 78.9 v 142 h -86.1 c -10.1,37.7 -27.1,74.1 -49.5,106 l 64.8,64.8 -100.4,100.4 -68.4,-68.4 c -31.5,18.9 -66.6,32.7 -102.5,40.3 v 98.8 h -141.9 v -98.8 c -35.9,-7.6 -71,-21.4 -102.5,-40.3 l -68.4,68.4 -100.4,-100.4 64.8,-64.8 c -22.4,-31.9 -39.4,-68.3 -49.5,-106 h -86 v -142 h 78.8 c 6.7,-41.8 21.7,-82.9 43.5,-119.3 l -51.6,-51.5 100.4,-100.4 48,48 c 36.6,-25.8 79.1,-44.3 122.9,-53.6 v -65.1 h 141.9 v 65.1 c 43.8,9.3 86.3,27.8 123,53.6 l 47.9,-48 100.4,100.4 -51.6,51.5 c 21.9,36.4 36.9,77.5 43.5,119.3"
         style="fill:#e3eefd;fill-opacity:1;fill-rule:nonzero;stroke:none"
         id="path216" />
      <path
         d="m 6160.49,8915.9 -176.91,95.5 856.03,855.9 176.91,-95.5 -856.03,-855.9"
         style="fill:#ffffff;fill-opacity:1;fill-rule:nonzero;stroke:none"
         id="path218" />
      <path
         d="m 6153.75,9605 c -138.93,74.4 -26.76,286.1 112.82,213 138.93,-74.4 26.76,-286.1 -112.82,-213 z m 169.22,319.4 c -282.5,143.5 -503.03,-272.9 -225.61,-425.9 282.49,-143.4 503.02,273 225.61,425.9"
         style="fill:#ffffff;fill-opacity:1;fill-rule:nonzero;stroke:none"
         id="path220" />
      <path
         d="m 6722.78,8939.7 c -138.93,74.4 -26.77,286.1 112.82,212.9 138.93,-74.3 26.76,-286 -112.82,-212.9 z M 6892,9259.1 c -282.5,143.5 -503.03,-272.9 -225.61,-425.9 282.49,-143.5 503.02,272.9 225.61,425.9"
         style="fill:#ffffff;fill-opacity:1;fill-rule:nonzero;stroke:none"
         id="path222" />
      <path
         d="m 16041.9,3104.2 c -3499.3,159.9 -2813.7,-858.3 -2879.4,2499.8 0,161.4 130.8,292.2 292.2,292.2 3499.4,-159.9 2813.7,858.3 2879.4,-2499.8 0,-161.4 -130.8,-292.2 -292.2,-292.2"
         style="fill:#e3eefd;fill-opacity:1;fill-rule:nonzero;stroke:none"
         id="path224" />
      <path
         d="m 15037.2,3960.2 c -1468.2,64 -1353.3,-325 -1344.2,895.9 0,101.7 82.4,184.1 184.1,184.1 1468.1,-64 1353.3,325 1344.2,-895.9 0,-101.7 -82.4,-184.1 -184.1,-184.1"
         style="fill:#739bfd;fill-opacity:1;fill-rule:nonzero;stroke:none"
         id="path226" />
      <path
         d="m 15803.7,4151 -486.1,112.1 v 486 l 486.1,101.1 V 4151"
         style="fill:#739bfd;fill-opacity:1;fill-rule:nonzero;stroke:none"
         id="path228" />
    </g>
  </g>
</svg>
