<?xml version="1.0" encoding="UTF-8" standalone="no"?>
<!-- Created with Inkscape (http://www.inkscape.org/) -->

<svg
   version="1.1"
   id="svg2"
   width="4000"
   height="2666.6667"
   viewBox="0 0 4000 2666.6667"
   sodipodi:docname="landing-page-background.svg"
   inkscape:version="1.2.2 (b0a8486541, 2022-12-01)"
   xmlns:inkscape="http://www.inkscape.org/namespaces/inkscape"
   xmlns:sodipodi="http://sodipodi.sourceforge.net/DTD/sodipodi-0.dtd"
   xmlns="http://www.w3.org/2000/svg"
   xmlns:svg="http://www.w3.org/2000/svg">
  <defs
     id="defs6">
    <clipPath
       clipPathUnits="userSpaceOnUse"
       id="clipPath46">
      <path
         d="m 8002.04,4035.5 c 0,0 -1879.81,-22 -3241.57,1117.6 0,0 1046.84,355.1 2188.61,-133.2 0,0 -1773.31,819.1 -1981.38,2308.6 0,0 1599.36,-606.7 2175.85,-1376.3 0,0 -754.89,843.6 -976.91,2205.1 0,0 1140.51,-932.3 1346.95,-1213.5 0,0 -133.22,1287.5 266.43,2057.1 l 222.02,-4965.4"
         id="path44" />
    </clipPath>
    <clipPath
       clipPathUnits="userSpaceOnUse"
       id="clipPath62">
      <path
         d="m 21835.3,3977.2 c 0,0 2405.9,722.6 3017.6,1587.3 0,0 -1423.7,-10.6 -2172.5,-284.7 0,0 1518.6,738.1 1824.5,1792.5 0,0 -1181.2,-284.7 -1666.3,-748.7 0,0 959.7,1217.4 949.1,2058.5 0,0 -1318.2,-740.5 -1392,-1236 0,0 -80.6,1803 -449.7,2077.2 l -110.7,-5246.1"
         id="path60" />
    </clipPath>
    <clipPath
       clipPathUnits="userSpaceOnUse"
       id="clipPath98">
      <path
         d="m 19462.8,10235.1 c -120.2,27.4 -3370.2,1526.3 -3377.5,1443.2 L 13953.8,11575 c -48.6,2.4 -161.6,-17.8 -159.4,-21.1 -57.9,-7.6 -2953.4,-390.1 -2953.4,-390.1 l 101.9,-2156.2 1974.7,77.1 -904.8,-3402.5 c 1163.3,-1100.8 4765.5,-272.6 5579,0 l -640.6,3456.4 1425.9,-704.8 1085.7,1801.3"
         id="path96" />
    </clipPath>
    <clipPath
       clipPathUnits="userSpaceOnUse"
       id="clipPath126">
      <path
         d="m 13495,13417.3 c 297.4,2798 3032.4,989.3 1837,-979.8 l 212.8,-1087.6 -1061.5,-186.1 -66.8,830.5 c -520,92.7 -921.5,694.3 -921.5,1423"
         id="path124" />
    </clipPath>
    <clipPath
       clipPathUnits="userSpaceOnUse"
       id="clipPath144">
      <path
         d="m 10859.6,10849.4 -3731.64,1899.7 -377.32,-648.5 3024,-2484.7 c 329.96,-252.3 750.56,-326.9 1157.66,-304.8 l -72.7,1538.3"
         id="path142" />
    </clipPath>
    <clipPath
       clipPathUnits="userSpaceOnUse"
       id="clipPath160">
      <path
         d="m 7239.7,12692.2 c 0,0 -360.04,835.9 -415.1,856.7 -135.69,51.1 -43.91,-663.2 -43.91,-663.2 0,0 -1090.43,-188.2 -1076.16,-185.6 14.26,2.5 1046.11,-599.5 1046.11,-599.5 l 489.06,591.6"
         id="path158" />
    </clipPath>
    <clipPath
       clipPathUnits="userSpaceOnUse"
       id="clipPath172">
      <path
         d="m 19240.6,9866.4 3889.6,1393.9 69.6,-758.3 c -491.3,-230.1 -3276.2,-2231.7 -3812.5,-2136.2 -314.5,-29 -636.2,95.5 -921.2,215.8 l 774.5,1284.8"
         id="path170" />
    </clipPath>
  </defs>
  <sodipodi:namedview
     id="namedview4"
     pagecolor="#ffffff"
     bordercolor="#000000"
     borderopacity="0.25"
     inkscape:showpageshadow="2"
     inkscape:pageopacity="0.0"
     inkscape:pagecheckerboard="0"
     inkscape:deskcolor="#d1d1d1"
     showgrid="false"
     inkscape:zoom="0.21027586"
     inkscape:cx="1119.9573"
     inkscape:cy="1436.2086"
     inkscape:window-width="1920"
     inkscape:window-height="959"
     inkscape:window-x="0"
     inkscape:window-y="32"
     inkscape:window-maximized="1"
     inkscape:current-layer="g10">
    <inkscape:page
       x="0"
       y="0"
       id="page8"
       width="4000"
       height="2666.6667" />
  </sodipodi:namedview>
  <g
     id="g10"
     inkscape:groupmode="layer"
     inkscape:label="Page 1"
     transform="matrix(1.3333333,0,0,-1.3333333,0,2666.6667)">
    <path
       id="rect326"
       style="fill:#c8fbec;stroke-width:0.75;fill-opacity:1"
       transform="scale(1,-1)"
       d="m 0,-2000.0001 1426.3401,1000 L 0,0 Z"
       sodipodi:nodetypes="cccc" />
  </g>
</svg>
